<svg xmlns="http://www.w3.org/2000/svg" width="150" height="150" viewBox="0 0 150 150"><style>.a{fill:#030104;}.b{fill:none;}</style><path d="M47 89.8c-14.6 0-29.2 0-43.7 0 -0.4 0-0.5-0.1-0.5-0.5 0-9.6 0-19.1 0-28.7 0-0.4 0.1-0.5 0.5-0.5 14.7 0 29.3 0 44 0 0.9 0.4 1.2 1 1.2 2 0 2.1 0 4.3 0 6.4 0 0.2 0.1 0.4-0.1 0.6 -0.2-0.1-0.2-0.3-0.2-0.5 -0.4-1.3-0.8-2.5-1.2-3.8 -0.1-0.4-0.4-0.6-0.8-0.6 -1.8 0-3.6 0-5.3 0 -0.6 0-0.8 0.2-1 0.7 -1.4 4.7-2.9 9.5-4.4 14.2 -0.5 1.6-1 3.1-1.4 4.7 -0.2 0.5-0.1 0.6 0.5 0.6 1.4 0 2.7 0 4.1 0 0.4 0 0.6-0.1 0.7-0.5 0.3-0.9 0.6-1.9 0.9-2.8 0.1-0.4 0.3-0.6 0.7-0.6 1.3 0 2.6 0 4 0 0.4 0 0.6 0.1 0.7 0.5 0.2 0.7 0.4 1.4 0.6 2.1 0.4 1.3 0.4 1.3 1.7 1.3 0.5 0 0.6 0.2 0.6 0.6 0 0.9 0 1.7 0 2.6C48.4 88.9 48.2 89.3 47 89.8zM19.4 74.3c0 3.2 0 6.3 0 9.5 0 0.6 0 0.7 0.7 0.7 4.3 0 8.6 0 12.8 0 0.7 0 0.7 0 0.7-0.7 0-1.2 0-2.5 0-3.7 0-0.7 0-0.7-0.7-0.7 -2.1 0-4.1 0-6.2 0 -0.9 0-0.9 0-0.9-0.9 0-4.5 0-9 0-13.5 0-0.7 0-0.7-0.7-0.7 -1.7 0-3.3 0-5 0 -0.7 0-0.7 0-0.7 0.8C19.4 68.1 19.4 71.2 19.4 74.3z" class="a"/><path d="M103.7 60.2c14.6 0 29.2 0 43.8 0 0.4 0 0.5 0.1 0.5 0.5 0 9.6 0 19.1 0 28.7 0 0.4-0.1 0.4-0.4 0.4 -14.6 0-29.2 0-43.9 0 -0.7-0.3-1.3-0.8-1.3-1.6 0-2.3 0-4.7 0-7 0-0.4 0.2-0.6 0.6-0.6 1.1 0 2.3 0 3.4 0 0.5 0 0.7 0.2 0.8 0.6 0.2 0.9 0.5 1.7 0.7 2.6 0.1 0.5 0.4 0.8 0.9 0.7 1.7 0 3.3 0 5 0 0.8 0 0.8-0.1 0.6-0.8 -1-3.1-2-6.3-3-9.4 -1-3.1-1.9-6.1-2.9-9.2 -0.2-0.6-0.4-0.8-1-0.8 -1.5 0-3.1 0-4.6 0 -0.5 0-0.7-0.2-0.6-0.7 0-0.5 0-1 0-1.4C102.3 61.3 102.8 60.6 103.7 60.2zM129.9 74c0.2-0.1 0.3-0.2 0.5-0.3 1.1-0.6 1.9-1.5 2.1-2.7 0.8-3.2-1.1-6.6-5.1-6.7 -3.5-0.1-7 0-10.5 0 -0.7 0-0.7 0-0.7 0.7 0 6.2 0 12.5 0 18.7 0 0.7 0 0.7 0.8 0.7 2.6 0 5.2 0 7.9 0 1.3 0 2.5 0 3.8-0.2 1.2-0.2 2.3-0.5 3.1-1.5 1.2-1.4 1.6-3.1 1.4-4.9 -0.1-1-0.5-2-1.3-2.7C131.3 74.7 130.6 74.4 129.9 74z" class="a"/><path d="M97 89.8c-14.4 0-28.8 0-43.2 0 -0.9-0.3-1.2-0.8-1.2-1.8 0-8.6 0-17.2 0-25.9 0-1.2 0.4-1.7 1.5-2 14.2 0 28.4 0 42.6 0 1.1 0.3 1.5 0.8 1.5 1.7 0 8.7 0 17.4 0 26.2C98.2 89 97.9 89.5 97 89.8zM86.3 87.9c-1-0.3-1.9-1.2-3-0.3 0 0-0.1 0-0.2 0 -1 0-1.9-0.3-2.8-0.7 -0.5-0.2-0.6-0.7-0.4-1.2 0.1-0.1 0.1-0.2-0.1-0.3 -0.4-0.2-0.5-0.7-0.8-1.1 -0.8-1.2-1.1-2.5-1.1-3.9 0-0.4-0.1-0.8-0.4-1.1 -0.2-0.2-0.3-0.5-0.3-0.8 0-1 0.5-1.9 1-2.7 0.3-0.4 0.6-0.5 1-0.3 0.3 0.1 0.7 0.3 0.9 0.3 0.4-0.1 0.7-0.4 1-0.6 0.2-0.2 0.4-0.4 0.7-0.4 0.3 0 0.2 0.3 0.3 0.4 0.1 0.2 0.2 0.2 0.3 0.2 0.3-0.1 0.6 0 0.9 0 0.3 0 0.7 0.2 1 0.1 0.5-0.1 1-0.1 1.4 0 0.5 0.1 0.9 0 1.3-0.3 0.1-0.1 0.3-0.2 0.4-0.1 0.1 0.1 0.3 0.2 0.2 0.4 -0.1 0.1 0 0.3 0.1 0.2 0.4-0.2 0.7 0.2 1 0 0.6-0.3 1.2 0 1.8-0.2 0.3-0.1 0.3-0.3 0.3-0.5 0-0.2-0.2-0.3-0.4-0.3 -0.1 0-0.2 0.1-0.2 0.1 -0.3 0.1-0.5-0.1-0.5-0.3 -0.1-0.3 0.3-0.2 0.4-0.2 0.4 0 0.8-0.3 1.1 0.1 0.1 0.1 0.4 0 0.5-0.2 0.1-0.2 0.1-0.4 0.1-0.6 0-0.5 0-1.1-0.1-1.6 -0.1-0.2 0-0.4 0.2-0.5 0.7-0.4 0.7-1.5 0.1-2 -0.1-0.1-0.1-0.1-0.1-0.2 0-0.1 0.1-0.1 0.2-0.1 0.4 0 0.7-0.4 0.8-0.6 0.1-0.6 0-1.2-0.1-1.7 -0.1-0.3 0-0.9-0.6-1 -0.2 0-0.2-0.2-0.1-0.3 0.1-0.2-0.1-0.3 0-0.4 -0.5-0.2-0.2-0.6-0.3-0.9 -0.1-0.2-0.2-0.4-0.3-0.3 -0.1 0.3-0.8-0.1-0.6 0.5 0 0.1 0.2 0.3 0 0.4 -0.1 0.1-0.3 0-0.5-0.1 -0.4-0.2-0.8-0.5-1.2 0 -0.2 0.2-0.5 0.2-0.5-0.2 0-0.3-0.2-0.2-0.3-0.2 -0.1 0-0.3 0.2-0.4 0 -0.1-0.2 0.1-0.3 0.2-0.4 0.4-0.2 0.2-0.5 0.1-0.8 -0.1-0.3-0.3-0.3-0.5-0.2 -0.4 0.2-0.7 0.1-0.8-0.4 0-0.2-0.1-0.4-0.3-0.2 -0.2 0.1-0.4 0.4-0.5 0.6 -0.1 0.3-0.3 0.7 0 1 0 0 0.1 0.5-0.3 0.2 0 0-0.5-0.2-0.6 0.1 -0.1 0.3-0.3 0.4-0.5 0.5 -0.1-0.3-0.7-0.2-0.6-0.6 -0.3 0-0.1-0.5-0.5-0.5 -0.5 0.1-0.7 0-0.6-0.6 0-0.1-0.1-0.2-0.2-0.3 -0.2-0.4-0.2-1.2 0.1-1.5 0.1-0.1 0.3-0.2 0.1-0.3 -0.1-0.1-0.3-0.1-0.4 0 -0.2 0.2-0.5 0.2-0.6-0.1 -0.1-0.2-0.3-0.2-0.3 0 -0.1 0.7-0.4 0.3-0.5 0 -0.2-0.3-0.5-0.3-0.7-0.2 -0.2 0.1-0.3 0.4-0.2 0.6 0.1 0.4 0 0.5-0.4 0.4 -0.2-0.1-0.3 0-0.3 0.2 0 0.2-0.1 0.4 0.1 0.6 0.2 0.2 0 0.5-0.1 0.7 -0.2 0.2-0.3 0-0.4-0.1 -0.1-0.1-0.2-0.1-0.2 0.1 -0.1 0.2-0.2 0.1-0.3 0.1 -0.3-0.1-0.9 0.1-1 0.4 -0.1 0.2 0.1 0.5-0.1 0.6 -0.3 0.2-0.3-0.3-0.5-0.2 -0.2 0-0.3 0.1-0.4-0.1 -0.1-0.3 0.3-0.1 0.3-0.3 -0.1-0.1-0.2 0-0.3-0.2 -0.3-0.7-0.8-0.8-1.5-0.7 -0.2 0.1-0.3 0.3-0.6 0.1 -0.3-0.1-1 0.3-1 0.6 0 0.3-0.3 0.5-0.5 0.5 -0.3 0-0.2-0.3-0.2-0.5 0-0.2-0.1-0.3-0.3-0.4 -0.2-0.2-0.5-0.4-0.7-0.6 -0.3-0.4-0.5-0.2-0.7 0.1 -0.1 0.1-0.1 0.2-0.1 0.3 -0.1 0.2-0.3 0.2-0.5 0 -0.2-0.2 0-0.2 0.1-0.3 0.1-0.3 0-0.6-0.2-0.9 -0.2-0.2-0.5 0.1-0.8-0.1 0 0.1-0.3 0.2 0 0.4 0.2 0.1 0.3 0.3 0.4 0.5 0.1 0.1 0.2 0.2 0 0.3 -0.1 0.1-0.2 0-0.3 0 -0.2-0.1-0.4-0.3-0.6-0.5 -0.3-0.2-0.5-0.2-0.6 0.1 -0.1 0.3-0.2 0.2-0.4 0.1 -0.6-0.4-0.7-0.3-1 0.3 -0.1 0.2-0.2 1-0.8 0.3 0 0-0.3-0.1-0.2 0.2 0.1 0.2 0 0.2-0.1 0.2 -0.2 0-0.4 0.2-0.6 0.1 -0.1-0.1-0.3 0-0.3 0 -0.1 0.1 0 0.2 0.1 0.3 0.1 0.1 0.1 0.2 0 0.3 -0.5 0.5-0.8 0.5-1.4 0.1 -0.3-0.2-0.7-0.4-0.9-0.1 -0.3 0.4 0.3 0.4 0.4 0.6 0 0 0 0 0 0 -0.4 0.5-0.4 0.7-1.2 0.1 -0.1 0.2 0.3 0.4 0 0.5 -0.3 0.1-0.4-0.1-0.4-0.4 0-0.1-0.3-0.3-0.3-0.2 -0.2 0.6-0.8 1-0.6 1.6 0.1 0.4 0 0.4-0.3 0.5 -0.6 0.1-1.2 0.4-1.5 1 -0.2 0.4-0.2 0.9-0.7 1.1 -0.4 0.2-0.5 0.5-0.4 0.9 0.1 0.4 0.5 0.3 0.7 0.4 0.1 0.1 0.4 0 0.4 0.2 0 0.2-0.3 0.2-0.4 0.2 -0.4-0.1-0.5 0.1-0.7 0.4 -0.2 0.3-0.2 0.6-0.3 0.9 -0.2 0.5-0.5 1-0.7 1.6 -0.1 0.3 0 0.4 0.2 0.5 0.4 0.3 0.6 0.9 1.1 1.2 0 0 0 0.1 0 0.2 0 0.2 0.1 0.3 0.3 0.3 0.5-0.1 0.9 0.2 1.3 0.2 0.1 0 0.4 0.1 0.3-0.1 0-0.6 0.3-0.4 0.6-0.3 -0.1-0.4 0.5-0.7 0.3-1.1 0 0 0.1 0 0.1 0 0.2 0.3 0.7 0.4 0.7 0.9 0 0.4 0.3 0.5 0.5 0.6 0.2 0 0.5 0.3 0.6-0.2 0-0.2 0.2-0.2 0.4-0.2 0.2 0 0.5-0.1 0.7-0.2 0.2-0.1 0.3-0.1 0.4 0.2 0.1 0.3 0.3 0.5 0.7 0.4 0.3-0.1 0.8-0.3 1 0.2 0 0 0.1 0 0.2 0 0.8-0.1 1.7 0.2 2.5-0.2 0.1-0.1 0.2 0 0.3 0.1 0.1 0.1 0.3 0.1 0.4 0 0.3-0.2 0.7-0.2 1-0.1 0.2 0 0.3 0 0.4-0.1 0.3-0.3 0.5-0.2 0.6 0.1 0.1 0.2 0.1 0.4 0.4 0.3 0.4-0.1 0.3 0.1 0.3 0.3 -0.1 0.5 0 1 0.3 1.4 0.2 0.3 0.3 0.7 0 1.1 -0.3 0.4-0.5 0.9-0.5 1.4 0 0.5-0.1 1-0.3 1.4 -0.1 0.3-0.2 0.6-0.3 0.9 -0.1 1.3-0.9 2.1-2 2.6 -0.7 0.3-1.2 0.2-1.6-0.4 -0.1-0.1-0.2-0.1-0.4-0.1 -1.1-0.2-1.9 0.7-2.9 0.6 0.2 0.2 0.8-0.1 0.6 0.6 0.5-0.2 0.5-0.2 0.9-0.6 0.5-0.5 1.2-0.4 1.5 0.2 0.2 0.3 0.4 0.4 0.7 0.3 0.1-0.1 0.2-0.1 0.3-0.1 0.5-0.1 0.9 0 1.4 0 0.5 0 1 0.2 1.6 0.2 0.3 0 0.1 0.4 0.3 0.4 0.7-0.2 1.4 0.2 2.1 0.1 0.5-0.1 0.9 0.3 0.8 0.8 0.3-0.1 0.6-0.3 0.9-0.4 0.4-0.1 0.7-0.3 0.7-0.6 0.1-0.8 0.5-0.9 1.3-0.8 0.4 0.1 0.5 0.2 0.4 0.5 -0.1 0.4-0.2 0.8-0.2 1.2 -0.1 0.5-0.6 0.8-0.8 0.5 -0.4-0.4-0.7-0.3-1.1-0.2 -0.8 0.2-1.7 0.4-2.4 0.9 0.7-0.3 1.5-0.5 2.2-0.7 0.4-0.1 0.8-0.3 1.1 0.3 0.1 0.1 0.2 0.1 0.3 0.1 0.7 0 1.3-0.4 1.3-1.1 0-0.4 0.3-0.3 0.5-0.3 0.3 0 0.2 0.3 0.2 0.4 -0.1 0.6-0.2 1.1-0.7 1.5 0.3 0.1 0.4-0.1 0.6-0.2 0.4-0.3 0.7-0.4 1.1-0.1 0.6 0.5 1.5 0.1 2.2 0.5 -0.3-0.6-0.6-1.1-1.3-0.8 -0.2 0.1-0.3 0-0.5-0.1 -0.1-0.1-0.3-0.2-0.3-0.4 0.1-0.2 0.3-0.2 0.4-0.2 0.7 0 1.4 0.2 2.2 0.3 0.4 0 0.6 0.1 0.9-0.2 0.1-0.1 0.4-0.4 0.4 0.1 0 0.1 0.3 0.3 0.4-0.1 0.1-0.2 0.3-0.3 0.5-0.2C85.4 87.8 85.8 87.9 86.3 87.9z" class="a"/><path d="M54.1 60.2c-1.2 0.3-1.5 0.8-1.5 2 0 8.6 0 17.2 0 25.9 0 0.9 0.3 1.4 1.2 1.8 -2.3 0-4.5 0-6.8 0 1.1-0.5 1.4-0.9 1.4-2.1 0-0.9 0-1.7 0-2.6 0-0.4-0.2-0.6-0.6-0.6 -1.3 0-1.3 0-1.7-1.3 -0.2-0.7-0.4-1.4-0.6-2.1 -0.1-0.4-0.3-0.5-0.7-0.5 -1.3 0-2.6 0-4 0 -0.4 0-0.6 0.2-0.7 0.6 -0.3 0.9-0.6 1.9-0.9 2.8 -0.1 0.4-0.3 0.5-0.7 0.5 -1.4 0-2.7 0-4.1 0 -0.6 0-0.6-0.1-0.5-0.6 0.5-1.6 1-3.1 1.4-4.7 1.5-4.7 2.9-9.5 4.4-14.2 0.2-0.5 0.4-0.7 1-0.7 1.8 0 3.6 0 5.3 0 0.5 0 0.7 0.2 0.8 0.6 0.4 1.3 0.8 2.6 1.2 3.8 0.1 0.2 0.1 0.4 0.2 0.5 0.1-0.2 0.1-0.4 0.1-0.6 0-2.1 0-4.3 0-6.4 0-0.9-0.3-1.6-1.2-2C49.5 60.2 51.8 60.2 54.1 60.2zM42.9 71.2c-0.1 0.1-0.2 0.1-0.2 0.1 -0.4 1.4-0.8 2.8-1.2 4.3 -0.1 0.3 0.1 0.4 0.4 0.4 0.6 0 1.3 0 1.9 0 0.3 0 0.4-0.1 0.3-0.4C43.7 74.1 43.3 72.7 42.9 71.2z" class="b"/><path d="M97 89.8c0.9-0.3 1.2-0.8 1.2-1.7 0-8.7 0-17.4 0-26.2 0-0.9-0.5-1.4-1.5-1.7 2.3 0 4.7 0 7 0 -0.9 0.4-1.4 1-1.3 2.1 0 0.5 0 1 0 1.4 0 0.5 0.2 0.7 0.6 0.7 1.5 0 3.1 0 4.6 0 0.6 0 0.8 0.2 1 0.8 0.9 3.1 1.9 6.1 2.9 9.2 1 3.1 2 6.3 3 9.4 0.2 0.8 0.2 0.8-0.6 0.8 -1.7 0-3.3 0-5 0 -0.6 0-0.8-0.2-0.9-0.7 -0.2-0.9-0.5-1.7-0.7-2.6 -0.1-0.4-0.3-0.6-0.8-0.6 -1.1 0-2.3 0-3.4 0 -0.4 0-0.6 0.2-0.6 0.6 0 2.3 0 4.7 0 7 0 0.8 0.6 1.3 1.3 1.6C101.5 89.8 99.3 89.8 97 89.8zM104.6 71.2c0 0-0.1 0-0.1 0 -0.4 1.4-0.8 2.9-1.2 4.3 -0.1 0.3 0.1 0.5 0.4 0.5 0.6 0 1.3 0 1.9 0 0.3 0 0.4-0.2 0.3-0.4C105.4 74.1 105 72.6 104.6 71.2z" class="b"/><path d="M19.4 74.3c0-3.1 0-6.2 0-9.4 0-0.7 0-0.8 0.7-0.8 1.7 0 3.3 0 5 0 0.7 0 0.7 0 0.7 0.7 0 4.5 0 9 0 13.5 0 0.9 0 0.9 0.9 0.9 2.1 0 4.1 0 6.2 0 0.7 0 0.7 0 0.7 0.7 0 1.2 0 2.5 0 3.7 0 0.7 0 0.7-0.7 0.7 -4.3 0-8.6 0-12.8 0 -0.6 0-0.7 0-0.7-0.7C19.4 80.6 19.4 77.5 19.4 74.3z" class="b"/><path d="M129.9 74c0.8 0.4 1.4 0.7 2 1.2 0.8 0.8 1.2 1.7 1.3 2.7 0.2 1.8-0.2 3.5-1.4 4.9 -0.8 1-1.9 1.3-3.1 1.5 -1.3 0.2-2.5 0.2-3.8 0.2 -2.6 0-5.2 0-7.9 0 -0.7 0-0.8 0-0.8-0.7 0-6.2 0-12.5 0-18.7 0-0.7 0-0.7 0.7-0.7 3.5 0 7-0.1 10.5 0 4 0.1 5.8 3.5 5.1 6.7 -0.3 1.2-1 2.1-2.1 2.7C130.2 73.8 130.1 73.9 129.9 74zM124 76.5c-0.4 0-0.9 0-1.3 0 -0.3 0-0.5 0.1-0.5 0.4 0 0.8 0 1.6 0 2.4 0 0.2 0.1 0.4 0.4 0.4 1 0 1.9 0.1 2.9 0 0.9-0.2 1.6-0.9 1.5-1.7 -0.1-0.8-0.8-1.5-1.7-1.5C124.8 76.5 124.4 76.5 124 76.5zM123.9 68.9c-0.4 0-0.8 0-1.2 0 -0.3 0-0.5 0.2-0.5 0.5 0 0.7 0 1.4 0 2.2 0 0.2 0.1 0.4 0.3 0.4 1 0 2 0.2 3-0.1 0.6-0.2 1.1-0.8 1.1-1.4 0-0.6-0.4-1.1-1-1.4C125 68.8 124.4 68.9 123.9 68.9z" class="b"/><path d="M86.3 87.9c-0.4-0.1-0.9-0.1-1.3-0.2 -0.2 0-0.5 0-0.5 0.2 -0.1 0.3-0.4 0.1-0.4 0.1 0-0.5-0.3-0.2-0.4-0.1 -0.3 0.3-0.6 0.2-0.9 0.2 -0.7-0.1-1.4-0.3-2.2-0.3 -0.1 0-0.3 0-0.4 0.2 -0.1 0.2 0.1 0.3 0.3 0.4 0.2 0.1 0.3 0.2 0.5 0.1 0.7-0.3 1 0.2 1.3 0.8 -0.7-0.3-1.5 0.1-2.2-0.5 -0.4-0.4-0.8-0.3-1.1 0.1 -0.1 0.1-0.2 0.3-0.6 0.2 0.6-0.4 0.7-0.9 0.7-1.5 0-0.2 0.1-0.5-0.2-0.4 -0.2 0-0.5-0.1-0.5 0.3 0 0.7-0.6 1.1-1.3 1.1 -0.1 0-0.3 0-0.3-0.1 -0.2-0.6-0.7-0.4-1.1-0.3 -0.8 0.2-1.5 0.3-2.2 0.7 0.7-0.5 1.6-0.7 2.4-0.9 0.4-0.1 0.8-0.2 1.2 0.2 0.3 0.3 0.7 0 0.8-0.5 0.1-0.4 0.1-0.8 0.2-1.2 0.1-0.3 0-0.5-0.4-0.5 -0.7-0.1-1.1 0-1.3 0.8 0 0.3-0.4 0.5-0.7 0.6 -0.3 0.1-0.6 0.2-0.9 0.4 0.1-0.4-0.3-0.8-0.8-0.8 -0.7 0.1-1.4-0.3-2.1-0.1 -0.3 0.1 0-0.4-0.3-0.3 -0.5 0-1-0.2-1.6-0.2 -0.5 0-0.9-0.1-1.4 0 -0.1 0-0.2 0-0.3 0.1 -0.3 0.2-0.5 0.1-0.7-0.3 -0.3-0.6-1-0.7-1.5-0.2 -0.4 0.4-0.4 0.4-0.9 0.6 0.2-0.6-0.4-0.4-0.6-0.6 1 0.1 1.8-0.9 2.9-0.6 0.1 0 0.3 0 0.4 0.1 0.4 0.6 0.9 0.7 1.6 0.4 1.2-0.5 1.9-1.3 2-2.6 0-0.3 0.1-0.6 0.3-0.9 0.2-0.4 0.3-0.9 0.3-1.4 0-0.5 0.2-1 0.5-1.4 0.3-0.4 0.2-0.7 0-1.1 -0.3-0.4-0.3-0.9-0.3-1.4 0-0.2 0.1-0.5-0.3-0.3 -0.3 0.1-0.3-0.1-0.4-0.3 -0.1-0.3-0.3-0.4-0.6-0.1 -0.1 0.1-0.3 0.1-0.4 0.1 -0.3 0-0.7-0.1-1 0.1 -0.1 0.1-0.3 0-0.4 0 -0.1-0.1-0.2-0.1-0.3-0.1 -0.8 0.4-1.7 0-2.5 0.2 -0.1 0-0.2 0-0.2 0 -0.3-0.5-0.7-0.3-1-0.2 -0.4 0.1-0.6-0.1-0.7-0.4 -0.1-0.3-0.1-0.3-0.4-0.2 -0.2 0.1-0.5 0.1-0.7 0.2 -0.2 0-0.4 0-0.4 0.2 -0.1 0.5-0.5 0.2-0.6 0.2 -0.2-0.1-0.5-0.2-0.5-0.6 0-0.4-0.5-0.5-0.7-0.9 0 0-0.1 0-0.1 0 0.2 0.4-0.4 0.7-0.3 1.1 -0.3-0.2-0.6-0.4-0.6 0.3 0 0.2-0.2 0.1-0.3 0.1 -0.4 0-0.8-0.3-1.3-0.2 -0.2 0-0.3-0.1-0.3-0.3 0-0.1 0-0.2 0-0.2 -0.5-0.2-0.7-0.9-1.1-1.2 -0.2-0.1-0.3-0.2-0.2-0.5 0.1-0.6 0.4-1.1 0.7-1.6 0.1-0.3 0.1-0.6 0.3-0.9 0.2-0.3 0.3-0.5 0.8-0.4 0.1 0 0.4 0.1 0.4-0.2 0-0.2-0.2-0.1-0.4-0.2 -0.2-0.1-0.6-0.1-0.7-0.4 -0.1-0.4 0.1-0.7 0.4-0.9 0.5-0.2 0.5-0.7 0.7-1.1 0.3-0.6 0.9-0.9 1.5-1 0.3-0.1 0.4-0.1 0.3-0.5 -0.2-0.7 0.5-1.1 0.6-1.6 0-0.1 0.2 0.1 0.3 0.2 0.1 0.2 0.1 0.5 0.4 0.4 0.3-0.1-0.1-0.4 0-0.5 0.8 0.5 0.8 0.4 1.2-0.1 0 0 0 0 0 0 -0.1-0.2-0.7-0.2-0.4-0.6 0.2-0.3 0.6-0.1 0.9 0.1 0.5 0.4 0.9 0.4 1.4-0.1 0.1-0.1 0.1-0.2 0-0.3 -0.1-0.1-0.2-0.2-0.1-0.3 0.1-0.1 0.3-0.1 0.3 0 0.2 0.2 0.4 0 0.6-0.1 0.2 0 0.2 0 0.1-0.2 -0.1-0.3 0.2-0.2 0.2-0.1 0.6 0.7 0.7-0.1 0.8-0.3 0.4-0.6 0.4-0.7 1-0.3 0.2 0.1 0.3 0.2 0.4-0.1 0.2-0.4 0.3-0.3 0.6-0.1 0.2 0.1 0.4 0.3 0.6 0.5 0.1 0.1 0.2 0.1 0.3 0 0.1-0.1 0-0.2 0-0.3 -0.1-0.2-0.2-0.4-0.4-0.5 -0.3-0.2 0-0.3 0-0.4 0.3 0.1 0.6-0.2 0.8 0.1 0.2 0.2 0.3 0.6 0.2 0.9 0 0.1-0.3 0.1-0.1 0.3 0.2 0.1 0.4 0.1 0.5 0 0.1-0.1 0.1-0.2 0.1-0.3 0.2-0.3 0.4-0.5 0.7-0.1 0.2 0.2 0.5 0.4 0.7 0.6 0.1 0.1 0.2 0.3 0.3 0.4 0 0.2-0.1 0.5 0.2 0.5 0.2 0 0.4-0.1 0.5-0.5 0-0.3 0.7-0.7 1-0.6 0.3 0.1 0.4-0.1 0.6-0.1 0.7-0.2 1.2 0 1.5 0.7 0.1 0.1 0.2 0.1 0.3 0.2 0 0.2-0.4 0-0.3 0.3 0.1 0.2 0.2 0.2 0.4 0.1 0.3-0.1 0.3 0.4 0.5 0.2 0.2-0.2 0-0.4 0.1-0.6 0.1-0.3 0.7-0.5 1-0.4 0.1 0.1 0.3 0.2 0.3-0.1 0-0.1 0.1-0.1 0.2-0.1 0.1 0.1 0.3 0.4 0.4 0.1 0.1-0.2 0.3-0.5 0.1-0.7 -0.2-0.2-0.1-0.4-0.1-0.6 0-0.2 0.2-0.3 0.3-0.2 0.4 0.1 0.5 0 0.4-0.4 -0.1-0.3 0-0.5 0.2-0.6 0.2-0.1 0.5-0.1 0.7 0.2 0.2 0.2 0.4 0.7 0.5 0 0-0.2 0.2-0.2 0.3 0 0.1 0.4 0.4 0.3 0.6 0.1 0.1-0.1 0.3-0.1 0.4 0 0.2 0.1 0 0.2-0.1 0.3 -0.3 0.3-0.3 1-0.1 1.5 0 0.1 0.2 0.2 0.2 0.3 -0.1 0.5 0.1 0.6 0.6 0.6 0.3 0 0.2 0.5 0.5 0.5 -0.1 0.5 0.5 0.3 0.6 0.6 0.2-0.1 0.4-0.2 0.5-0.5 0.1-0.3 0.6-0.1 0.6-0.1 0.4 0.3 0.3-0.2 0.3-0.2 -0.2-0.3-0.1-0.7 0-1 0.1-0.2 0.3-0.5 0.5-0.6 0.2-0.1 0.3 0.1 0.3 0.2 0.1 0.4 0.3 0.6 0.8 0.4 0.2-0.1 0.5-0.1 0.5 0.2 0.1 0.3 0.3 0.6-0.1 0.8 -0.2 0.1-0.3 0.2-0.2 0.4 0.1 0.2 0.2 0 0.4 0 0.1 0 0.4-0.1 0.3 0.2 0 0.4 0.3 0.5 0.5 0.2 0.5-0.5 0.9-0.2 1.2 0 0.2 0.1 0.3 0.1 0.5 0.1 0.2-0.1 0.1-0.3 0-0.4 -0.1-0.6 0.5-0.1 0.6-0.5 0-0.1 0.2 0.2 0.3 0.3 0.1 0.3-0.2 0.8 0.3 0.9 -0.1 0.2 0.1 0.3 0 0.4 -0.1 0.1-0.1 0.3 0.1 0.3 0.6 0.1 0.5 0.6 0.6 1 0.1 0.6 0.2 1.2 0.1 1.7 0 0.3-0.4 0.6-0.8 0.6 -0.1 0-0.2 0-0.2 0.1 0 0.1 0 0.1 0.1 0.2 0.6 0.5 0.6 1.6-0.1 2 -0.3 0.1-0.3 0.3-0.2 0.5 0.2 0.5 0.1 1.1 0.1 1.6 0 0.2-0.1 0.4-0.1 0.6 -0.1 0.2-0.4 0.3-0.5 0.2 -0.4-0.4-0.8-0.1-1.1-0.1 -0.2 0-0.5-0.1-0.4 0.2 0 0.2 0.3 0.4 0.5 0.3 0.1 0 0.2-0.1 0.2-0.1 0.2 0 0.5 0 0.4 0.3 0 0.2 0 0.4-0.3 0.5 -0.6 0.2-1.2-0.1-1.8 0.2 -0.3 0.2-0.7-0.2-1 0 -0.1 0.1-0.2-0.1-0.1-0.2 0.2-0.2-0.1-0.3-0.1-0.4 -0.1-0.2-0.3 0-0.4 0.1 -0.4 0.3-0.8 0.4-1.3 0.3 -0.5-0.1-1-0.1-1.4 0 -0.3 0.1-0.6-0.1-1-0.1 -0.3 0-0.6-0.2-0.9 0 -0.2 0.1-0.3 0-0.3-0.2 -0.1-0.2 0-0.5-0.3-0.4 -0.3 0-0.5 0.2-0.7 0.4 -0.3 0.3-0.6 0.6-1 0.7 -0.3 0.1-0.6-0.1-0.9-0.3 -0.4-0.2-0.7-0.1-1 0.3 -0.5 0.8-1 1.7-1 2.7 0 0.3 0.1 0.6 0.3 0.8 0.4 0.3 0.4 0.7 0.4 1.1 0 1.4 0.3 2.8 1.1 3.9 0.2 0.3 0.3 0.8 0.8 1.1 0.1 0.1 0.1 0.2 0.1 0.3 -0.2 0.5-0.1 1 0.4 1.2 0.9 0.4 1.8 0.7 2.8 0.7 0.1 0 0.1 0 0.2 0C84.3 86.7 85.3 87.6 86.3 87.9zM75.4 73c0.1 0.2-0.4 1.2-0.7 1.2 0 0-0.1 0-0.1 0 -0.3-0.4-0.8-0.1-1.1-0.4 -0.1-0.1-0.2-0.1-0.3 0 -0.1 0.1 0.1 0.3 0.1 0.3 0 0.3 0.3 0.5 0.2 0.7 -0.3 0.7-0.1 1.3 0.3 1.9 0.4 0.5 0.8 1.1 1.4 1.5 0.3 0.2 0.5 0.2 0.5-0.2 0-0.2 0.1-0.5 0.3-0.7 0.7-0.6 0.9-1.4 1.3-2.2 0.2-0.3-0.2-0.7 0-1 0 0-0.1 0-0.1 0 -0.5 0-0.4-0.4-0.6-0.7 -0.1-0.2-0.2-0.5-0.5-0.7C76.1 73.4 75.6 72.9 75.4 73z" class="b"/><path d="M42.9 71.2c0.4 1.5 0.8 2.9 1.2 4.4 0.1 0.3-0.1 0.4-0.3 0.4 -0.6 0-1.3 0-1.9 0 -0.2 0-0.4-0.1-0.4-0.4 0.4-1.4 0.8-2.8 1.2-4.3C42.7 71.3 42.8 71.3 42.9 71.2z" class="a"/><path d="M104.6 71.2c0.4 1.4 0.8 2.9 1.2 4.3 0.1 0.2 0 0.4-0.3 0.4 -0.6 0-1.3 0-1.9 0 -0.3 0-0.5-0.2-0.4-0.5 0.4-1.4 0.8-2.9 1.2-4.3C104.5 71.2 104.5 71.2 104.6 71.2z" class="a"/><path d="M124 76.5c0.4 0 0.8 0 1.2 0 0.9 0 1.7 0.7 1.7 1.5 0.1 0.8-0.5 1.5-1.5 1.7 -1 0.2-1.9 0.1-2.9 0.1 -0.3 0-0.4-0.2-0.4-0.4 0-0.8 0-1.6 0-2.4 0-0.3 0.2-0.4 0.5-0.4C123.1 76.5 123.6 76.5 124 76.5z" class="a"/><path d="M123.9 68.9c0.6 0 1.2-0.1 1.7 0.1 0.7 0.2 1 0.7 1 1.4 0 0.6-0.5 1.3-1.1 1.4 -1 0.3-2 0.1-3 0.1 -0.3 0-0.3-0.2-0.3-0.4 0-0.7 0-1.4 0-2.2 0-0.3 0.2-0.5 0.5-0.5C123.1 68.9 123.5 68.9 123.9 68.9z" class="a"/><path d="M75.4 73c0.2-0.1 0.7 0.5 0.5-0.4 0.3 0.2 0.4 0.5 0.5 0.7 0.2 0.3 0.1 0.7 0.6 0.7 0 0 0.1 0 0.1 0 -0.2 0.3 0.2 0.7 0 1 -0.4 0.8-0.7 1.6-1.3 2.2 -0.2 0.2-0.2 0.4-0.3 0.7 0 0.4-0.3 0.4-0.5 0.2 -0.5-0.4-1-1-1.4-1.5 -0.4-0.6-0.5-1.2-0.3-1.9 0.1-0.3-0.2-0.5-0.2-0.7 0-0.1-0.2-0.2 0-0.3 0.1-0.1 0.3-0.1 0.3 0 0.3 0.4 0.8 0.1 1.1 0.4 0 0 0.1 0 0.1 0C75 74.2 75.5 73.2 75.4 73z" class="a"/></svg>
